<svg xmlns="http://www.w3.org/2000/svg" id="Layer_1" enable-background="new 0 0 64 64" viewBox="0 0 64 64"><polygon fill="#9da6b1" points="10.7 3.4 14.7 4.1 14.7 6.8 13.7 6.8 11.2 55.9 6.7 55.2"/><polygon fill="#dadde1" points="6.7 55.2 10.7 3.4 7.7 4.2 .9 54.1"/><polygon fill="#9da6b1" points="64 4.2 60.1 3.4 56.2 55.6 64 51.6"/><polygon fill="#dadde1" points="60.1 3.4 57 4.2 50.2 54.2 56.2 55.6"/><polygon fill="#dadde1" points="56.6 6.8 56.2 10.4 55.9 12.1 50.2 54.2 11.1 55.9 13.4 12.1 13.5 10.5 13.5 10.4 13.7 6.8"/><polygon fill="#788d9a" points="56.2 10.4 56.2 12.1 13.4 12.1 13.5 10.5 13.5 10.4"/><rect width="1.5" height="19.8" x="48.6" y="11.9" fill="#788d9a" transform="rotate(2.404 49.332 21.844) scale(.99998)"/><rect width="1.5" height="19.8" x="31.9" y="11.9" fill="#788d9a" transform="rotate(2.404 32.675 21.844) scale(.99998)"/><rect width="1.5" height="19.8" x="15.7" y="11.9" fill="#788d9a" transform="rotate(2.404 16.486 21.844) scale(.99998)"/><rect width="11.4" height="7.5" x="19.2" y="13.8" fill="#788d9a" transform="matrix(.9991 .04186 -.04186 .9991 .756 -1.027)"/><rect width="11.4" height="7.5" x="35.7" y="13.8" fill="#788d9a" transform="matrix(.9991 .04186 -.04186 .9991 .77 -1.717)"/><path fill="#5dafd8" d="M46.5,18.2c0.1,0.2,0.1,0.4-0.1,0.5c-0.7,0.3-2.3,1.2-2.7,3.1c-0.6,2.3,0.4,8,0.4,8.5c0,0,0,0.1,0,0.1
		c0,0.3-0.2,2.8-0.8,3.4c-0.5,0.6,0.7,1.6,1.1,1.9c0.1,0.1,0.1,0.2,0.1,0.3c0,0.4,0,1.6-0.4,2.5c-0.5,0.9,0.7,2.1,1,2.4
		c0,0,0.1,0.1,0.1,0.1c0.1,0.3,0.3,1.2-0.8,3c0,0,0,0.1,0,0.1c-0.1,0.3-0.2,1.6,1.4,3c0.1,0.1,0.1,0.1,0.1,0.2
		c0.1,0.4,0.1,1.6-1.6,2.7c-2,1.2-0.2,4.4,0.1,4.9c0,0,0,0.1,0,0.1c0.1,0.4,0.4,2.9-3.1,3.4c-0.1,0-0.2,0.1-0.2,0.1l-1,1.1
		c-0.1,0.1-0.2,0.1-0.3,0.1L0.4,60.6c-0.3,0-0.4-0.3-0.3-0.5c0.4-0.9,1.6-2.7,5.2-3.3c0,0,0.1,0,0.1,0c0.2-0.1,1.2-0.7,1.4-1.5
		c0,0,0.4-2.1,0.8-2.8c0.1-0.1,0.2-0.2,0.3-0.2l1.3,0c0.2,0,0.3-0.1,0.4-0.2c0.1-0.4,0.3-1.1-0.2-2c-0.6-1.2,0-2.7,2.4-2.8
		c0.1,0,0.2-0.1,0.3-0.2c0.3-0.4,1-1.7,0.7-3.9c0,0-0.1-1.4,1.5-1.5c0.2,0,0.4-0.2,0.3-0.4c0-0.6-0.1-1.8-0.8-2.8
		c-0.8-1.2,0.3-3.3,0.6-3.8c0.1-0.1,0.1-0.1,0.2-0.2c0.7-0.1,3.7-0.9,3.2-3.8c-0.5-2.6,0.6-3.5,1-3.8c0.1-0.1,0.2-0.2,0.2-0.4
		c-0.2-1.4-1-8.1,2.3-8.3l6.5,0.1c0.1,0,0.1,0,0.2-0.1c0.3-0.2,1.2-0.7,2-0.2c0.2,0.2,0.2,0.5-0.1,0.6c-0.7,0.3-2.1,1.2-2.7,3.1
		c-0.8,2.6,0.3,7.2,0.4,7.5c0,0,0,0,0,0c0,0.3,0.3,2.9-0.4,4c-0.7,1.1,0.6,2.2,0.8,2.3c0,0,0,0,0.1,0.1c0.1,0.2,0.6,1.1-0.1,3.8
		c0,0.1,0,0.3,0.1,0.4c0.3,0.3,1,1.1,0.5,2.7c-0.3,0.9-0.4,1.5-0.5,2c0,0.5,0.6,0.5,0.7,0.1c0.2-1.3,0.7-3.2,1.7-3.2
		c0.2,0,0.4-0.2,0.3-0.4c-0.3-1.6-1-6.3,0.1-6.6c1.3-0.3,4.3-1.2,3.3-4.9c0,0,0-0.1,0-0.1c0-0.3,0-2,1.1-2.8
		c0.1-0.1,0.2-0.2,0.1-0.4c-0.2-0.8-0.9-3.3-0.2-5.1c0.9-2.1,1.1-3.2,2.5-3.2l6.1,0.1c0.1,0,0.1,0,0.2,0
		C44.5,18.1,45.9,17.4,46.5,18.2z"/><path fill="#ebebeb" d="M43.1 20.5c-.5.3-1 .8-1.4 1.2-.4.5-.8 1-1 1.6-.1.1-.1.3-.2.4-.1.1-.1.3-.2.4l-.2.5L40 25.1c-.1.3-.1.6-.2.9 0 .3-.1.6-.1 1 0-.3 0-.6 0-1 0-.3 0-.6.1-1l.1-.5.1-.5c0-.2.1-.3.1-.5.1-.2.1-.3.2-.5.2-.6.6-1.2 1-1.7.4-.5.8-1 1.4-1.5.1-.1.3-.1.4.1C43.2 20.2 43.2 20.4 43.1 20.5 43.1 20.5 43.1 20.5 43.1 20.5L43.1 20.5zM41.9 19.8c-.6.2-1.1.5-1.6.9-.5.4-1 .8-1.4 1.3-.1.1-.2.2-.3.4-.1.1-.2.2-.3.4l-.3.4-.2.4c-.2.3-.3.6-.4.9-.1.3-.2.6-.3.9.1-.3.2-.6.3-.9.1-.3.2-.6.4-.9l.2-.4.2-.4c.1-.1.2-.3.3-.4.1-.1.2-.3.3-.4.4-.5.9-1 1.4-1.4.5-.4 1.1-.8 1.7-1.1.1-.1.3 0 .4.2C42.2 19.5 42.1 19.7 41.9 19.8 42 19.8 42 19.8 41.9 19.8L41.9 19.8zM38.9 19.5c-.3.1-.6.3-.8.4-.3.2-.5.4-.7.7-.1.1-.1.1-.2.2C37.1 20.9 37.1 21 37 21l-.1.2-.1.2c-.1.1-.1.3-.2.5-.1.2-.1.3-.2.5 0-.2.1-.3.1-.5.1-.2.1-.3.2-.5l.1-.2.1-.2c0-.1.1-.1.1-.2 0-.1.1-.1.1-.2.2-.3.4-.5.7-.7.3-.2.6-.4.9-.6.1 0 .2 0 .2.1C39 19.4 39 19.5 38.9 19.5 38.9 19.5 38.9 19.5 38.9 19.5L38.9 19.5zM26.6 20.5c-.5.3-1 .8-1.4 1.2-.4.5-.8 1-1 1.6-.1.1-.1.3-.2.4-.1.1-.1.3-.2.4l-.2.5-.1.5c-.1.3-.1.6-.2.9 0 .3-.1.6-.1 1 0-.3 0-.6 0-1 0-.3 0-.6.1-1l.1-.5.1-.5c0-.2.1-.3.1-.5.1-.2.1-.3.2-.5.2-.6.6-1.2 1-1.7.4-.5.8-1 1.4-1.5.1-.1.3-.1.4.1C26.8 20.2 26.7 20.4 26.6 20.5 26.6 20.5 26.6 20.5 26.6 20.5L26.6 20.5zM25.5 19.8c-.6.2-1.1.5-1.6.9-.5.4-1 .8-1.4 1.3-.1.1-.2.2-.3.4-.1.1-.2.2-.3.4l-.3.4-.2.4c-.2.3-.3.6-.4.9-.1.3-.2.6-.3.9.1-.3.2-.6.3-.9.1-.3.2-.6.4-.9l.2-.4.2-.4c.1-.1.2-.3.3-.4.1-.1.2-.3.3-.4.4-.5.9-1 1.4-1.4.5-.4 1.1-.8 1.7-1.1.1-.1.3 0 .4.2C25.7 19.5 25.7 19.7 25.5 19.8 25.5 19.8 25.5 19.8 25.5 19.8L25.5 19.8zM22.4 19.5c-.3.1-.6.3-.8.4-.3.2-.5.4-.7.7-.1.1-.1.1-.2.2-.1.1-.1.1-.1.2l-.1.2-.1.2c-.1.1-.1.3-.2.5-.1.2-.1.3-.2.5 0-.2.1-.3.1-.5.1-.2.1-.3.2-.5l.1-.2.1-.2c0-.1.1-.1.1-.2 0-.1.1-.1.1-.2.2-.3.4-.5.7-.7.3-.2.6-.4.9-.6.1 0 .2 0 .2.1C22.6 19.4 22.5 19.5 22.4 19.5 22.4 19.5 22.4 19.5 22.4 19.5L22.4 19.5z"/><path fill="#fff" d="M38.8 32c-.4.4-.8.9-1.1 1.4-.1.3-.3.5-.3.8-.1.3-.1.6 0 .8.1.1.2.2.3.3.1.1.2.1.4.2.3.2.5.3.7.6.2.3.3.7.1 1 0 .1-.1.2-.1.2 0 .1 0 .1 0 .2 0 .1 0 .3 0 .4 0 .1 0 .3.1.4 0 .2.1.3.1.5 0 .3 0 .6 0 1-.1.3-.3.6-.5.8-.3.2-.6.3-.8.4-.2.1-.5.3-.6.6-.1.2-.2.5-.2.8 0 .3.1.6.2.8.1.3.3.5.5.7l0 0 0 0c.1.2.2.3.2.5 0 .1 0 .2-.1.3-.1.1-.1.1-.2.2.1-.1.1-.1.2-.2 0-.1.1-.2.1-.3 0-.2-.1-.3-.2-.5l0 0c-.3-.2-.5-.4-.6-.7-.1-.3-.2-.6-.3-.9 0-.3 0-.6.2-.9.2-.3.4-.5.7-.7.3-.1.6-.2.8-.4.2-.2.4-.4.4-.7.1-.3.1-.6 0-.8 0-.1-.1-.3-.1-.4 0-.1-.1-.3-.1-.5 0-.2 0-.3 0-.5 0-.1 0-.2.1-.2 0-.1.1-.2.1-.2.1-.3.1-.5-.1-.8-.2-.2-.4-.4-.6-.6-.2-.1-.6-.3-.7-.6-.2-.3-.1-.7 0-1 .1-.3.2-.6.4-.8C38 32.9 38.4 32.4 38.8 32zM22.5 32c-.4.4-.8.9-1.1 1.4-.1.3-.3.5-.3.8-.1.3-.1.6 0 .8.1.1.2.2.3.3.1.1.2.1.4.2.3.2.5.3.7.6.2.3.3.7.1 1 0 .1-.1.2-.1.2 0 .1 0 .1-.1.2 0 .1 0 .3 0 .4 0 .1 0 .3.1.4 0 .2.1.3.1.5 0 .3 0 .6 0 1-.1.3-.3.6-.5.8-.3.2-.6.3-.8.4-.2.1-.5.3-.6.6-.1.2-.2.5-.2.8 0 .3.1.6.2.8.1.3.3.5.5.7l0 0 0 0c.1.2.2.3.2.5 0 .1 0 .2-.1.3-.1.1-.1.1-.2.2.1-.1.1-.1.2-.2 0-.1.1-.2.1-.3 0-.2-.1-.3-.2-.5l0 0c-.3-.2-.5-.4-.6-.7-.1-.3-.2-.6-.3-.9 0-.3 0-.6.2-.9.2-.3.4-.5.7-.7.3-.1.6-.2.8-.4.2-.2.4-.4.4-.7.1-.3.1-.6 0-.8 0-.1-.1-.3-.1-.4 0-.1-.1-.3-.1-.5 0-.2 0-.3 0-.5 0-.1 0-.2.1-.2 0-.1.1-.2.1-.2.1-.3.1-.5-.1-.8-.2-.2-.4-.4-.6-.6-.2-.1-.6-.3-.7-.6-.1-.3-.1-.7 0-1 .1-.3.2-.6.4-.8C21.7 32.9 22.1 32.4 22.5 32zM33.3 50.9l-.2-.2c.2-.3.4-.5.5-.8.1-.3 0-.6 0-.9 0-.4-.1-.8.1-1.1 0 0 0-.1.1-.1 0-.1.1-.1.1-.2 0-.2-.1-.4-.2-.6-.1-.2-.2-.3-.2-.5-.1-.3 0-.7.3-1.1.1-.1.1-.3 0-.4 0-.1-.1-.2-.3-.2-.4-.1-.8-.3-1-.6-.3-.5-.4-1.2-.1-2 .1-.3.3-.7.5-1 .1-.2.3-.5.4-.7.2-.5.4-1 .4-1.5l.3 0c-.1.5-.2 1.1-.4 1.6-.1.3-.3.5-.4.7-.2.3-.4.6-.5.9-.1.3-.4 1.1 0 1.7.2.3.5.5.8.5.2 0 .4.2.5.4.1.2.1.4 0 .6-.2.4-.3.6-.2.9 0 .1.1.3.2.4.1.2.3.5.2.8 0 .1-.1.2-.1.3 0 0 0 .1 0 .1-.1.3-.1.6 0 1 0 .3.1.7 0 1C33.7 50.4 33.5 50.7 33.3 50.9zM17.6 50.9l-.2-.2c.2-.3.4-.5.5-.8.1-.3 0-.6 0-.9 0-.4-.1-.8.1-1.1 0 0 0-.1.1-.1 0-.1.1-.2.1-.2 0-.2-.1-.4-.2-.6-.1-.2-.2-.3-.2-.5-.1-.3 0-.7.3-1.1.1-.1.1-.3 0-.4 0-.1-.1-.2-.3-.2-.4-.1-.8-.3-1-.6-.3-.5-.4-1.2-.1-2 .1-.3.3-.7.5-1 .1-.2.3-.5.4-.7.2-.5.4-1 .4-1.5l.3 0c-.1.5-.2 1.1-.4 1.6-.1.3-.3.5-.4.7-.2.3-.4.6-.5.9-.1.3-.4 1.1 0 1.7.2.3.5.5.8.5.2 0 .4.2.5.4.1.2.1.4 0 .6-.2.4-.3.6-.2.9 0 .1.1.3.2.4.1.2.3.5.2.8 0 .1-.1.2-.1.3 0 0 0 .1 0 .1-.1.3-.1.6 0 1 0 .3.1.7 0 1C18 50.4 17.8 50.7 17.6 50.9zM26.2 51.5c-.2-.2-.2-.4-.1-.6 0-.2.1-.4.3-.6.2-.3.6-.5.9-.6.3-.1.7-.1 1-.1.3 0 .7.2 1 .4l0 .1c-.3.1-.6.1-.8.2-.3.1-.6.1-.8.2-.3.1-.5.2-.7.4C26.5 51 26.3 51.3 26.2 51.5L26.2 51.5zM10 52.2c0 0-.1-2.1 3.5-2.3M5.3 59.3c.5-.6 1.1-1.2 1.8-1.7.3-.3.7-.5 1-.7.2-.1.4-.2.6-.2.2 0 .4 0 .7.1l-.1.1c0-.3 0-.5 0-.8 0-.3.1-.5.2-.8.1-.1.1-.2.3-.3.1-.1.3-.1.4-.1.3.1.5.2.7.4l-.1 0c.1-.3.2-.7.4-1 .2-.3.4-.5.8-.7.3-.1.7 0 1 .1.2.1.3.1.5.2l.4.3L13.2 54c-.2-.1-.3-.1-.5-.2-.3-.1-.7-.2-1 0-.3.1-.6.4-.7.6-.2.3-.3.6-.3.9l0 .1-.1-.1C10.4 55.2 10.2 55 10 55c-.1 0-.2 0-.3 0-.1.1-.2.2-.2.3-.1.2-.1.5-.1.7 0 .3 0 .5 0 .8l0 .2-.1-.1c-.3-.2-.7 0-1.1.2-.3.2-.7.4-1 .7-.6.5-1.2 1.1-1.7 1.7L5.3 59.3zM18.8 55.1c-.3.2-.6.5-.8.8-.1.2-.2.3-.2.5-.1.2-.1.3-.1.5l0 .2-.2 0c-.3 0-.6 0-.9 0-.3 0-.6.1-.9.2-.3.1-.4.2-.5.5C15 58 15 58.3 15 58.7l-.1 0c-.2-.3-.3-.6-.3-1 0-.2.1-.4.3-.6.1-.2.3-.3.5-.3.4-.1.7-.1 1.1-.1.3 0 .7 0 1 .1l-.2.2c0-.2.1-.4.2-.6.1-.2.2-.4.3-.5C18.1 55.5 18.4 55.2 18.8 55.1L18.8 55.1zM22 59.6c0-.5.1-.9.3-1.3.2-.4.5-.8.9-1.1.4-.2.9-.3 1.3-.3.2 0 .4.1.7.1l.6.2-.2.2c0-.3 0-.5.1-.8.1-.2.2-.5.4-.7.2-.2.5-.3.8-.3.1 0 .3 0 .4 0l.4.1-.1 0c.2-.2.4-.4.6-.6.2-.2.5-.3.7-.4.3-.1.5-.2.8-.2.3 0 .6 0 .8 0-.3 0-.6 0-.8 0-.3 0-.5.1-.8.2-.3.1-.5.3-.7.5-.2.2-.4.4-.5.6l0 .1-.1 0-.3-.1c-.1 0-.2 0-.3 0-.2 0-.4.1-.6.2-.2.1-.3.4-.3.6-.1.2-.1.5-.1.7l0 .2-.2 0-.6-.1c-.2 0-.4 0-.6 0-.4 0-.8.1-1.1.3-.3.2-.5.5-.7.9-.1.4-.2.8-.2 1.1L22 59.6zM31.4 58.8c-.1-.3-.1-.7-.1-1 0-.3.2-.7.5-.9.3-.2.6-.3 1-.4.2 0 .4 0 .5 0l.5.1-.2.1c0-.2 0-.3.1-.5 0-.2.1-.3.2-.5.1-.2.2-.3.4-.4.2-.1.3-.1.5-.1v0c-.2 0-.3.1-.4.2-.1.1-.2.2-.2.4-.1.3-.2.6-.2.9l0 .2-.2 0-.5-.1c-.2 0-.3 0-.5 0-.3 0-.6.1-.9.3-.3.2-.4.5-.5.8C31.3 58.1 31.3 58.5 31.4 58.8L31.4 58.8zM39.2 58.5c0-.3 0-.6 0-.9 0-.3.1-.6.2-.9.1-.3.4-.6.7-.7.3-.1.7-.1 1 0l-.3.3c-.1-.3-.1-.5-.1-.8 0-.3 0-.5.1-.8.1-.3.2-.6.5-.7.3-.2.6-.1.8 0l0 .1c-.3 0-.5.1-.6.3-.1.1-.2.3-.2.6 0 .2 0 .5 0 .7 0 .2 0 .5 0 .7l.1.4-.4-.2c-.3-.1-.5-.1-.7-.1-.2.1-.4.3-.6.5-.1.2-.3.5-.3.8C39.4 57.9 39.3 58.2 39.2 58.5L39.2 58.5z"/></svg>